<svg width="24" height="24" viewBox="0 0 45 45" fill="lightBlue" xmlns="http://www.w3.org/2000/svg">
<path d="M22.5 22.5C19.4062 22.5 16.7578 21.3984 14.5547 19.1953C12.3516 16.9922 11.25 14.3438 11.25 11.25C11.25 8.15625 12.3516 5.50781 14.5547 3.30469C16.7578 1.10156 19.4062 0 22.5 0C25.5938 0 28.2422 1.10156 30.4453 3.30469C32.6484 5.50781 33.75 8.15625 33.75 11.25C33.75 14.3438 32.6484 16.9922 30.4453 19.1953C28.2422 21.3984 25.5938 22.5 22.5 22.5ZM0 45V37.125C0 35.5312 0.410156 34.0664 1.23047 32.7305C2.05078 31.3945 3.14062 30.375 4.5 29.6719C7.40625 28.2188 10.3594 27.1289 13.3594 26.4023C16.3594 25.6758 19.4062 25.3125 22.5 25.3125C25.5938 25.3125 28.6406 25.6758 31.6406 26.4023C34.6406 27.1289 37.5938 28.2188 40.5 29.6719C41.8594 30.375 42.9492 31.3945 43.7695 32.7305C44.5898 34.0664 45 35.5312 45 37.125V45H0Z"/>
</svg>
