<svg width="24" height="24" viewBox="0 0 45 45" fill="lightBlue" xmlns="http://www.w3.org/2000/svg">
<path d="M4.5 45C3.2625 45 2.20312 44.4492 1.32187 43.3477C0.440625 42.2461 0 40.9219 0 39.375V5.625C0 4.07812 0.440625 2.75391 1.32187 1.65234C2.20312 0.550781 3.2625 0 4.5 0H40.5C41.7375 0 42.7969 0.550781 43.6781 1.65234C44.5594 2.75391 45 4.07812 45 5.625V39.375C45 40.9219 44.5594 42.2461 43.6781 43.3477C42.7969 44.4492 41.7375 45 40.5 45H4.5ZM22.5 25.3125L4.5 11.25V39.375H40.5V11.25L22.5 25.3125ZM22.5 19.6875L40.5 5.625H4.5L22.5 19.6875ZM4.5 11.25V5.625V39.375V11.25Z"/>
</svg>
