<svg width="24" height="24" viewBox="0 0 45 45" fill="lightBlue"  xmlns="http://www.w3.org/2000/svg">
<path d="M39.375 34.25H44.5V37.75H0.5V34.25H5.625H6.125V33.75V18C6.125 15.0286 7.23818 12.385 9.4997 10.0511C11.7636 7.71472 14.7148 6.17319 18.3793 5.44029L18.7812 5.3599V4.95V3.375C18.7812 2.60902 19.1061 1.94915 19.8241 1.37481C20.5454 0.797707 21.4278 0.5 22.5 0.5C23.5722 0.5 24.4546 0.797707 25.1759 1.37481C25.8939 1.94915 26.2188 2.60902 26.2188 3.375V4.95V5.3599L26.6207 5.44029C30.2852 6.17319 33.2364 7.71472 35.5003 10.0511C37.7618 12.385 38.875 15.0286 38.875 18V33.75V34.25H39.375ZM10.75 33.75V34.25H11.25H33.75H34.25V33.75V18C34.25 15.3506 33.0607 13.0957 30.7577 11.2533C28.4572 9.41293 25.6956 8.5 22.5 8.5C19.3044 8.5 16.5428 9.41293 14.2423 11.2533C11.9393 13.0957 10.75 15.3506 10.75 18V33.75ZM22.5 44.5C21.055 44.5 19.8439 44.091 18.8397 43.2877C17.9984 42.6147 17.5371 41.8557 17.4109 41H27.5891C27.4629 41.8557 27.0016 42.6147 26.1603 43.2877C25.1561 44.091 23.945 44.5 22.5 44.5Z"/>
</svg>
